<svg width="75" height="81" viewBox="0 0 75 81" fill="none" xmlns="http://www.w3.org/2000/svg">
<path d="M36.5822 57.2828C35.6425 57.0233 34.9119 56.2818 34.6649 55.3373L34.2123 53.6066C33.7696 51.914 35.3233 50.3768 37.0073 50.8412L68.9156 59.6412C70.8545 60.1759 71.1903 62.7871 69.4499 63.7967L67.4485 64.9575C66.8145 65.3253 66.0594 65.4227 65.3531 65.2275L36.5822 57.2828Z" fill="#212222"/>
<path d="M39.5725 68.7216C38.6284 68.4633 37.8942 67.719 37.6477 66.7702L37.1906 65.0114C36.7512 63.3202 38.3031 61.7861 39.9854 62.2491L56.5245 66.8012C58.4661 67.3356 58.8008 69.9513 57.0565 70.9589L55.0538 72.1158C54.4225 72.4806 53.672 72.5776 52.9689 72.3852L39.5725 68.7216Z" fill="#212222"/>
<path d="M42.766 79.9552C41.3193 80.7981 39.469 80.0261 39.0471 78.4037C38.5567 76.5177 40.2864 74.8064 42.1627 75.3212C44.3257 75.9148 44.7047 78.8258 42.766 79.9552Z" fill="#212222"/>
<path d="M21.9951 47.7898C21.7497 46.8448 22.0252 45.8402 22.7184 45.1536L23.9881 43.8956C25.23 42.6653 27.3357 43.2447 27.7761 44.9379L36.1229 77.02C36.6302 78.9696 34.5407 80.5665 32.7978 79.5613L30.7936 78.4055C30.1586 78.0393 29.6969 77.4329 29.5124 76.7224L21.9951 47.7898Z" fill="#212222"/>
<path d="M13.5964 56.107C13.3475 55.1589 13.624 54.1498 14.3209 53.4614L15.6127 52.1854C16.855 50.9585 18.9573 51.538 19.3981 53.229L23.7322 69.8542C24.2411 71.8059 22.1472 73.404 20.404 72.3946L18.4026 71.2356C17.7716 70.8702 17.3125 70.2676 17.1272 69.5615L13.5964 56.107Z" fill="#212222"/>
<path d="M7.37712 64.872C5.92509 64.0383 5.66714 62.047 6.85886 60.8697C8.24401 59.5013 10.5883 60.1463 11.0813 62.0317C11.6497 64.205 9.32265 65.9892 7.37712 64.872Z" fill="#212222"/>
<path d="M22.9409 30.388C23.6352 29.7025 24.6413 29.4392 25.5815 29.6973L27.3037 30.17C28.9883 30.6322 29.5404 32.7488 28.2968 33.9776L4.73485 57.2608C3.30318 58.6755 0.877917 57.6613 0.875411 55.6466L0.872591 53.3299C0.871652 52.5958 1.165 51.8921 1.68686 51.3767L22.9409 30.388Z" fill="#212222"/>
<path d="M11.5485 27.263C12.2437 26.5729 13.2542 26.3081 14.1978 26.5685L15.9467 27.0514C17.6286 27.5158 18.1787 29.6294 16.9373 30.8573L4.73281 42.93C3.30005 44.3473 0.871493 43.3297 0.872589 41.3126L0.873841 38.9967C0.874154 38.2665 1.16562 37.5669 1.68341 37.0532L11.5485 27.263Z" fill="#212222"/>
<path d="M0.863111 26.2505C0.857786 24.5739 2.4503 23.3546 4.0638 23.7997C5.93933 24.3172 6.55375 26.6737 5.17064 28.0442C3.57593 29.6238 0.870159 28.4971 0.863111 26.2505Z" fill="#212222"/>
<path d="M38.5116 22.5014C39.4513 22.7608 40.182 23.5022 40.4289 24.4468L40.8816 26.1774C41.3242 27.87 39.7705 29.4073 38.0865 28.9429L6.17828 20.1429C4.23932 19.6082 3.90353 16.997 5.6439 15.9876L7.64519 14.8265C8.27934 14.4588 9.03441 14.3615 9.74077 14.5565L38.5116 22.5014Z" fill="#212222"/>
<path d="M35.5199 11.0579C36.464 11.3162 37.1982 12.0604 37.4447 13.0092L37.9018 14.7681C38.3412 16.4594 36.7893 17.9935 35.107 17.5304L18.5679 12.9784C16.6263 12.4438 16.2916 9.82827 18.0359 8.82057L20.0386 7.66362C20.6699 7.29901 21.4205 7.2019 22.1235 7.39423L35.5199 11.0579Z" fill="#212222"/>
<path d="M31.0478 1.27383C32.4945 0.430949 34.3449 1.2029 34.7668 2.82533C35.2572 4.71135 33.5275 6.42259 31.6511 5.90777C29.4882 5.31418 29.1092 2.40322 31.0478 1.27383Z" fill="#212222"/>
<path d="M53.0739 32.0811C53.3193 33.0262 53.0438 34.0308 52.3506 34.7174L51.0809 35.9752C49.839 37.2056 47.7333 36.6263 47.2927 34.933L38.9461 2.85094C38.4388 0.90149 40.5283 -0.695411 42.2711 0.309778L44.2754 1.46565C44.9104 1.83189 45.3721 2.4383 45.5566 3.14869L53.0739 32.0827V32.0811Z" fill="#212222"/>
<path d="M61.4712 23.7555C61.7201 24.7038 61.4436 25.7129 60.7467 26.4013L59.4549 27.6772C58.2126 28.9042 56.1102 28.3246 55.6695 26.6337L51.3354 10.0084C50.8265 8.0568 52.9204 6.45848 54.6635 7.46806L56.665 8.62705C57.296 8.99244 57.7551 9.59512 57.9403 10.3012L61.4712 23.7555Z" fill="#212222"/>
<path d="M67.6826 14.9997C69.1346 15.8334 69.3925 17.8247 68.2008 19.002C66.8157 20.3704 64.4714 19.7253 63.9783 17.8401C63.4099 15.6668 65.7369 13.8826 67.6826 14.9997Z" fill="#212222"/>
<path d="M52.0575 49.4573C51.3632 50.1428 50.357 50.4061 49.4169 50.148L47.6945 49.6753C46.0101 49.213 45.458 47.0966 46.7014 45.8677L70.2633 22.5846C71.695 21.1697 74.1203 22.1841 74.1228 24.1987L74.1256 26.5154C74.1265 27.2495 73.8332 27.9532 73.3113 28.4686L52.0575 49.4573Z" fill="#212222"/>
<path d="M63.4503 52.5787C62.755 53.2687 61.7445 53.5336 60.8009 53.2731L59.0519 52.7902C57.3701 52.3259 56.82 50.2123 58.0614 48.9844L70.2659 36.9116C71.6987 35.4943 74.1272 36.5119 74.1261 38.529L74.1249 40.845C74.1246 41.575 73.8331 42.2748 73.3153 42.7885L63.4503 52.5787Z" fill="#212222"/>
<path d="M74.1366 53.5993C74.142 55.276 72.5495 56.4953 70.936 56.05C69.0604 55.5325 68.446 53.1762 69.8291 51.8057C71.4237 50.2261 74.1296 51.3526 74.1366 53.5993Z" fill="#212222"/>
</svg>
